<svg width="18" height="20" viewBox="0 0 18 20" fill="none" xmlns="http://www.w3.org/2000/svg">
<path d="M2.7682 10.1406L4.66663 9.44918C4.72523 9.42578 4.79554 9.41406 4.86581 9.41406H17.0299C17.358 9.41406 17.6158 9.67184 17.6158 10V18.2422C17.6158 19.2148 16.8307 20 15.858 20H4.13925C3.16656 20 2.38144 19.2148 2.38144 18.2422V10.6914C2.38144 10.4453 2.53382 10.2227 2.7682 10.1406Z" fill="#FC1A40"/>
<path d="M2.38142 10.6914V18.2422C2.38142 19.2148 3.16654 20 4.13924 20H9.99861V9.41406H4.8658C4.79549 9.41406 4.72517 9.42578 4.66662 9.44918L2.76818 10.1406C2.53381 10.2227 2.38142 10.4453 2.38142 10.6914Z" fill="#C60034"/>
<path d="M2.59236 3.81984C2.79154 3.01124 3.38924 2.37847 4.19783 2.12062C4.99471 1.87449 5.85022 2.05031 6.47127 2.61277L7.83068 3.80812L8.10018 2.01519C8.22908 1.19488 8.75643 0.50343 9.54154 0.175344C9.69389 0.116712 9.84623 0.0698366 9.99857 0.0463991C10.6431 -0.0825072 11.3111 0.0581178 11.8502 0.456594C12.565 0.972219 12.9283 1.83941 12.8111 2.70656C12.6822 3.57374 12.0962 4.31202 11.2642 4.60499L9.99857 5.06202L8.43998 5.63624C8.42826 5.63624 8.42826 5.63624 8.42826 5.63624L5.72123 6.6323C5.45174 6.72609 5.17049 6.773 4.90096 6.773C4.32666 6.773 3.7642 6.56199 3.31889 6.16359C2.66268 5.57765 2.38143 4.67527 2.59236 3.81984Z" fill="#FE9923"/>
<path d="M3.31892 6.16361C3.76424 6.56201 4.32674 6.77303 4.90099 6.77303C5.17049 6.77303 5.45174 6.72611 5.72127 6.63232L8.4283 5.63627C8.4283 5.63627 8.4283 5.63627 8.44002 5.63627L9.99861 5.06205V0.0463867C9.84627 0.0698633 9.69392 0.116699 9.54158 0.175332C8.75646 0.503418 8.22908 1.19486 8.10021 2.01518L7.83072 3.80811L6.47131 2.61275C5.85025 2.05029 4.99474 1.87447 4.19787 2.12061C3.38928 2.37846 2.79162 3.01123 2.5924 3.81982C2.38142 4.67529 2.66267 5.57768 3.31892 6.16361Z" fill="#FE8821"/>
<path d="M0.377535 9.1445L1.17441 11.3476C1.2682 11.582 1.49085 11.7226 1.72523 11.7226C1.79554 11.7226 1.86585 11.7109 1.92441 11.6875L7.98304 9.48439L8.53378 7.66798L9.99863 7.99607L11.2877 8.28904L17.3463 6.08591C17.651 5.96876 17.8033 5.62888 17.6978 5.33591L16.8893 3.13286C16.7369 2.68755 16.4087 2.33591 15.9869 2.13673C15.565 1.93755 15.0846 1.91408 14.6393 2.07814L9.99859 3.76564L9.68214 3.88279C9.68214 3.88279 8.41656 6.1797 8.38136 6.1797C8.35789 6.1797 7.85402 5.89845 7.36183 5.62888C6.86976 5.35935 6.37753 5.07814 6.37753 5.07814L1.43226 6.88279C0.986948 7.04685 0.635386 7.37501 0.436207 7.79689C0.23691 8.21872 0.213511 8.69923 0.377535 9.1445Z" fill="#FF3E75"/>
<path d="M0.377518 9.14449L1.17439 11.3476C1.26818 11.582 1.49084 11.7226 1.72521 11.7226C1.79552 11.7226 1.86584 11.7109 1.92439 11.6875L7.98303 9.48438L8.53377 7.66797L9.99861 7.99605V3.76562L9.68217 3.88277C9.68217 3.88277 8.41658 6.17969 8.38138 6.17969C8.35791 6.17969 7.85404 5.89844 7.36185 5.62887C6.86974 5.35934 6.37752 5.07812 6.37752 5.07812L1.43224 6.88277C0.986932 7.04684 0.635369 7.375 0.43619 7.79688C0.236893 8.21871 0.213494 8.69922 0.377518 9.14449Z" fill="#FC1A40"/>
<path d="M11.7564 9.41406V20H8.2408V9.41406H11.7564Z" fill="#FCBF29"/>
<path d="M9.68221 3.88281L9.99865 4.75L11.2877 8.2891L9.99865 8.75789L8.53381 9.28523L7.98307 9.48441L6.37752 5.07816L9.68221 3.88281Z" fill="#FCBF29"/>
<path d="M8.24065 9.41406H9.99846V20H8.24065V9.41406Z" fill="#FE9923"/>
<path d="M6.37752 5.07816L7.98303 9.48441L8.53377 9.2852L9.99861 8.75785V4.75L9.6822 3.88281L6.37752 5.07816Z" fill="#FE9923"/>
</svg>
